<svg version="1.1" xmlns="http://www.w3.org/2000/svg" viewBox="0 0 1446.4597507705885 522.4330749511719" width="4339.379252311765" height="1567.2992248535156">
  <!-- svg-source:excalidraw -->
  
  <defs>
    <style>
      @font-face {
        font-family: "Virgil";
        src: url("https://excalidraw.com/Virgil.woff2");
      }
      @font-face {
        font-family: "Cascadia";
        src: url("https://excalidraw.com/Cascadia.woff2");
      }
    </style>
  </defs>
  <rect x="0" y="0" width="1446.4597507705885" height="522.4330749511719" fill="#ffffff"></rect><g stroke-linecap="round" transform="translate(217.87436384379862 10) rotate(0 146.76507568359375 95.29991149902344)"><path d="M-1.88 0.67 C109.27 -0.64, 217.23 -0.43, 294.77 -1.02 M0.64 -0.16 C103.33 -2.1, 207.76 -4.39, 292.37 -0.25 M296.78 3.05 C294.48 51.71, 293.3 104.72, 290.62 189.16 M291.76 -1.39 C294.83 52.48, 294.35 107.02, 291.65 189.06 M295.77 191.48 C222.17 188.65, 147.35 191.33, 1.27 192.56 M292.18 191.78 C208.64 187.7, 120.81 185.64, -0.3 190.85 M3.57 187.65 C-2.28 112.58, 2.43 39.38, -2.27 -2.63 M0.41 192.06 C-2.72 145.78, -1.13 98.27, 1.38 -0.38" stroke="#5c940d" stroke-width="2" fill="none"></path></g><g stroke-linecap="round" transform="translate(1030.237933392962 11.92926025390625) rotate(0 110.65591934057079 71.85292053222656)"><path d="M0.53 1.22 C81.74 -0.48, 166.91 -2.72, 220.42 -2.17 M-0.15 1.55 C80.48 4.98, 158.41 2.34, 220.91 1.28 M218.44 -2.51 C221.68 51.28, 216.89 105.3, 219.98 145.12 M221.5 0.83 C222.98 48.67, 224.69 96.65, 219.47 145.07 M218.79 143.12 C157.61 143.06, 91.18 146.23, -0.12 141.9 M219.65 142.92 C176.6 141.34, 130.03 143.33, -1.43 145.27 M-3.61 144.79 C1.67 96.63, -3.68 56.54, -3.12 -1.09 M0.86 142.57 C-4.02 107.43, -0.28 68.86, -1.2 -1.8" stroke="#364fc7" stroke-width="2" fill="none"></path></g><g stroke-linecap="round" transform="translate(849.9093201117121 271.24444580078125) rotate(0 110.65591934057079 71.85292053222656)"><path d="M2.77 -1.58 C81.18 1.9, 164.24 0.58, 218.11 1.07 M-1.31 1.12 C67.06 -1.09, 135.79 -3.53, 221.51 -0.2 M225.23 -0.94 C222.88 43.39, 223.41 81.41, 219.73 140.32 M223.28 0.94 C219.42 55.92, 220.54 112.14, 220.07 141.98 M219.37 143.91 C136.76 139.38, 54.57 144.42, -0.92 145.44 M221.94 142.57 C142.91 141, 67.68 140.46, 0.64 145.11 M0.88 145.26 C-4.37 105.39, -4.78 63.74, -2.45 0.55 M-0.41 142.92 C0.38 114.72, 1.68 85.37, -0.76 -1.61" stroke="#364fc7" stroke-width="2" fill="none"></path></g><g stroke-linecap="round" transform="translate(1213.9622375921808 273.54046630859375) rotate(0 110.65591934057079 71.85292053222656)"><path d="M-3.29 -2.69 C85.75 4.95, 176.59 2.5, 223.35 1.89 M0.9 1.38 C80.51 -1.75, 161.42 -2.16, 222.61 0.61 M224.6 1.33 C221.34 41.46, 221.98 76.65, 224.08 145.53 M219.87 1.05 C222.95 53.69, 222.08 108.11, 221.76 143.86 M221.81 142.76 C144.92 143.85, 65.24 138.72, 2.78 142.42 M220.32 143.24 C151.93 142.5, 83.49 143.28, -0.69 142.9 M-1.05 147.23 C-1.08 89.89, -4.05 31.03, -2.43 -2.04 M-0.44 142.03 C-0.69 97.72, 0.64 51.11, -0.15 -1.39" stroke="#364fc7" stroke-width="2" fill="none"></path></g><g stroke-linecap="round" transform="translate(12.21933454692362 321.833251953125) rotate(0 146.76507568359375 95.29991149902344)"><path d="M-0.7 -1.93 C78.26 2.57, 158.42 1.9, 294.37 -2.41 M-0.64 -1.47 C113.44 -4.14, 228.3 -2.96, 292.9 1.13 M293.27 3.94 C298.69 54.79, 292.47 102.89, 295.15 193.69 M295.37 -0.53 C296.06 54.15, 298.41 109.02, 293.03 192.5 M296.11 191.36 C199.9 187.2, 104.05 189.21, -1.28 193.44 M294.56 191.98 C190.11 191.7, 86.53 192.05, -0.06 190.53 M3.28 192.24 C-2.34 147.74, 2.63 105.25, 3.71 -0.8 M-0.82 188.9 C2.16 142.16, 4.8 91.1, 0.05 -1.47" stroke="#5c940d" stroke-width="2" fill="none"></path></g><g stroke-linecap="round" transform="translate(474.5505113047361 321.20751953125) rotate(0 146.76507568359375 95.29991149902344)"><path d="M-1.28 2.84 C72.19 -2.57, 142.72 1.7, 296.29 1.02 M-0.06 -0.07 C63.38 2.29, 128.98 3.67, 294.14 -1.02 M297.24 -0.8 C294.09 43.23, 292.32 92.09, 290.12 187.99 M293.58 -1.47 C297.96 69.55, 295.91 141.88, 292.2 190.1 M293.05 188.34 C221.43 192.82, 154.26 194.28, -1.64 188.8 M293 190.85 C210.17 187.47, 127.19 186.38, 0.04 189.19 M3.63 192.74 C-1.3 116.04, -3.77 37, -2.35 -0.08 M1.79 192.1 C3.16 139.2, 3.29 85.74, 0.12 0.67" stroke="#5c940d" stroke-width="2" fill="none"></path></g><g stroke-linecap="round"><g transform="translate(218.72879499614237 67.61724853515625) rotate(0 145.87805129129444 2.111456636357019)"><path d="M0.82 0.83 C50.1 1.63, 244.96 4.98, 293.94 5.41 M-2.18 -1.18 C46.93 -1.31, 242.63 -0.24, 291.92 0.96" stroke="#5c940d" stroke-width="2" fill="none"></path></g></g><g stroke-linecap="round"><g transform="translate(13.36392683207987 383.35931396484375) rotate(0 148.24172945220025 2.0759032557532464)"><path d="M-0.92 -0.19 C47.68 1.04, 242.68 5.89, 291.89 6.91 M3.78 -2.76 C53.27 -2.22, 249.2 2.6, 297.4 3.27" stroke="#5c940d" stroke-width="2" fill="none"></path></g></g><g stroke-linecap="round"><g transform="translate(476.431858960986 381.3387451171875) rotate(0 144.49236026223753 3.0038091004267358)"><path d="M-0.28 -1.98 C48.72 -1.18, 244.04 3.08, 292.86 4.37 M-3.88 3.12 C44.8 4.44, 241.21 8.35, 290.25 7.99" stroke="#5c940d" stroke-width="2" fill="none"></path></g></g><g stroke-linecap="round"><g transform="translate(219.09708112895487 108.25521850585938) rotate(0 145.30140371736138 -1.0064577084779671)"><path d="M0.28 -0.8 C49.46 -0.89, 244.66 -1.99, 293.62 -2.18 M-3.02 -3.7 C45.9 -3.11, 242 0.82, 291.21 1.69" stroke="#5c940d" stroke-width="2" fill="none"></path></g></g><g stroke-linecap="round"><g transform="translate(1031.8434190195808 86.25026370319927) rotate(0 110.98017693089139 -0.9858120765692036)"><path d="M0.43 0.99 C37.44 0.58, 182.87 -2, 219.49 -2.96 M-2.78 -0.95 C35.34 -0.91, 188.02 0.51, 224.74 0.14" stroke="#364fc7" stroke-width="2" fill="none"></path></g></g><g stroke-linecap="round"><g transform="translate(851.5148057383308 345.56544925007427) rotate(0 112.77975554244404 0.49670183761361386)"><path d="M2.24 -1.28 C39.03 -1.34, 183.73 0.36, 220.01 0.47 M0.01 4.2 C37.78 3.33, 187.91 -1.61, 225.54 -3.2" stroke="#364fc7" stroke-width="2" fill="none"></path></g></g><g stroke-linecap="round"><g transform="translate(1215.5677232187995 347.86146975788677) rotate(0 109.11452512392589 -0.8576276339745164)"><path d="M-2.66 -2.18 C33.94 -1.88, 183.07 -0.35, 220.89 -0.38 M1.09 2.81 C37.14 2.49, 181.12 -4.15, 218.26 -4.53" stroke="#364fc7" stroke-width="2" fill="none"></path></g></g><g stroke-linecap="round"><g transform="translate(13.73221296489237 423.9972839355469) rotate(0 146.36585753854365 -1.3759124737977686)"><path d="M-0.19 -1.65 C49.3 -1.8, 247.18 -1.68, 296.46 -1.81 M-3.73 3.63 C45.65 2.68, 245.88 -5.91, 295.6 -6.38" stroke="#5c940d" stroke-width="2" fill="none"></path></g></g><g stroke-linecap="round"><g transform="translate(476.8001450937985 421.9767150878906) rotate(0 145.97098773904145 -1.9168312151313103)"><path d="M-1.98 -0.68 C47.08 -1.22, 244.38 -3.35, 293.92 -3.51 M2.14 -3.52 C50.87 -3.63, 243 0.17, 291.68 -0.35" stroke="#5c940d" stroke-width="2" fill="none"></path></g></g><g transform="translate(233.26736921489237 27.32586669921875) rotate(0 80 12.5)"><text x="0" y="18" font-family="Virgil, Segoe UI Emoji" font-size="20px" fill="#e67700" text-anchor="start" style="white-space: pre;" direction="ltr">&lt;class&gt; Creator</text></g><g transform="translate(232.61215681254862 71.71670532226562) rotate(0 9 12.5)"><text x="0" y="18" font-family="Virgil, Segoe UI Emoji" font-size="20px" fill="#e67700" text-anchor="start" style="white-space: pre;" direction="ltr">...</text></g><g transform="translate(229.23556989848612 126.32669067382812) rotate(0 136 25)"><text x="0" y="18" font-family="Virgil, Segoe UI Emoji" font-size="20px" fill="#e67700" text-anchor="start" style="white-space: pre;" direction="ltr">+ createProduct(): Product</text><text x="0" y="43" font-family="Virgil, Segoe UI Emoji" font-size="20px" fill="#e67700" text-anchor="start" style="white-space: pre;" direction="ltr">...</text></g><g transform="translate(28.094731275439244 337.60089111328125) rotate(0 83 12.5)"><text x="0" y="18" font-family="Virgil, Segoe UI Emoji" font-size="20px" fill="#e67700" text-anchor="start" style="white-space: pre;" direction="ltr">&lt;class&gt; Creator1</text></g><g transform="translate(29.66544050395487 390.52899169921875) rotate(0 9 12.5)"><text x="0" y="18" font-family="Virgil, Segoe UI Emoji" font-size="20px" fill="#e67700" text-anchor="start" style="white-space: pre;" direction="ltr">...</text></g><g transform="translate(25.06692976176737 444.98822021484375) rotate(0 136 25)"><text x="0" y="18" font-family="Virgil, Segoe UI Emoji" font-size="20px" fill="#e67700" text-anchor="start" style="white-space: pre;" direction="ltr">+ createProduct(): Product</text><text x="0" y="43" font-family="Virgil, Segoe UI Emoji" font-size="20px" fill="#e67700" text-anchor="start" style="white-space: pre;" direction="ltr">...</text></g><g transform="translate(483.47806257426737 338.26788330078125) rotate(0 87 12.5)"><text x="0" y="18" font-family="Virgil, Segoe UI Emoji" font-size="20px" fill="#e67700" text-anchor="start" style="white-space: pre;" direction="ltr">&lt;class&gt; Creator2</text></g><g transform="translate(486.66678327739237 383.20440673828125) rotate(0 9 12.5)"><text x="0" y="18" font-family="Virgil, Segoe UI Emoji" font-size="20px" fill="#e67700" text-anchor="start" style="white-space: pre;" direction="ltr">...</text></g><g transform="translate(483.7914781016111 439.35943603515625) rotate(0 136 25)"><text x="0" y="18" font-family="Virgil, Segoe UI Emoji" font-size="20px" fill="#e67700" text-anchor="start" style="white-space: pre;" direction="ltr">+ createProduct(): Product</text><text x="0" y="43" font-family="Virgil, Segoe UI Emoji" font-size="20px" fill="#e67700" text-anchor="start" style="white-space: pre;" direction="ltr">...</text></g><g stroke-linecap="round"><g transform="translate(154.31711286723612 316.3699951171875) rotate(0 0.6515317766532291 -17.87402697678658)"><path d="M2.34 1.03 C2.79 -4.25, 1.84 -26.86, 1.63 -32.02 M0.17 -0.87 C0.25 -7.05, -0.87 -31.24, -1.16 -36.78" stroke="#a61e4d" stroke-width="2" fill="none"></path></g></g><g stroke-linecap="round"><g transform="translate(155.54996198832987 279.9125061035156) rotate(0 223.2756946664676 0.6331512898206597)"><path d="M1.32 -1.56 C75.73 -1.45, 373.35 1.51, 447.96 2.24 M-1.41 3.77 C72.53 2.82, 371.03 -1.53, 445.93 -2.5" stroke="#a61e4d" stroke-width="2" fill="none"></path></g></g><g stroke-linecap="round"><g transform="translate(600.0381822031736 281.13812255859375) rotate(0 0.4614756698188671 20.16166443113235)"><path d="M-1.71 -1.44 C-1.1 4.96, 1.65 31.83, 1.87 38.85 M2.55 3.94 C3.07 10.67, 1.21 35.08, 0.32 41.77" stroke="#a61e4d" stroke-width="2" fill="none"></path></g></g><g stroke-linecap="round"><g transform="translate(363.41287702739237 278.1986999511719) rotate(0 -2.3723727089968065 -35.47023472607134)"><path d="M-0.51 -2.07 C-0.69 -13.78, -0.19 -58.73, -0.92 -70.31 M-4.23 2.99 C-4.59 -9.45, -1.33 -60.71, -1.89 -73.93" stroke="#a61e4d" stroke-width="2" fill="none"></path></g><g transform="translate(363.41287702739237 278.1986999511719) rotate(0 -2.3723727089968065 -35.47023472607134)"><path d="M-1.81 -76.8 L1.72 -58.51 L-10.56 -63.51 L-3.37 -75.26" stroke="none" stroke-width="0" fill="#a61e4d" fill-rule="evenodd"></path><path d="M-4.1 -71.42 C2.73 -71.45, 3.31 -62.64, 5.02 -61.68 M-2.19 -73.83 C-1.45 -70.38, 0.39 -68.94, 2.86 -59.1 M6.61 -59.84 C0.09 -58.85, 0.9 -62.77, -9.62 -60 M4.3 -60.29 C1.59 -59.26, -1.28 -59.91, -8.05 -61.33 M-11.35 -58.48 C-6.34 -63.55, -3.58 -64.98, -1.25 -71.71 M-7.64 -59.03 C-5.09 -64.68, -3.64 -71.58, -0.67 -75.3 M-1.89 -73.93 C-1.89 -73.93, -1.89 -73.93, -1.89 -73.93 M-1.89 -73.93 C-1.89 -73.93, -1.89 -73.93, -1.89 -73.93" stroke="#a61e4d" stroke-width="2" fill="none"></path></g></g><g transform="translate(1041.0445298594236 39.703887939453125) rotate(0 99.5 12.5)"><text x="0" y="18" font-family="Virgil, Segoe UI Emoji" font-size="20px" fill="#e67700" text-anchor="start" style="white-space: pre;" direction="ltr">&lt;interface&gt; Product</text></g><g transform="translate(1048.7622422617674 102.06442260742188) rotate(0 9 12.5)"><text x="0" y="18" font-family="Virgil, Segoe UI Emoji" font-size="20px" fill="#e67700" text-anchor="start" style="white-space: pre;" direction="ltr">...</text></g><g transform="translate(867.6295518320799 300.7823486328125) rotate(0 83 12.5)"><text x="0" y="18" font-family="Virgil, Segoe UI Emoji" font-size="20px" fill="#e67700" text-anchor="start" style="white-space: pre;" direction="ltr">&lt;class&gt; Product1</text></g><g transform="translate(1228.9523667734861 299.673828125) rotate(0 87.5 12.5)"><text x="0" y="18" font-family="Virgil, Segoe UI Emoji" font-size="20px" fill="#e67700" text-anchor="start" style="white-space: pre;" direction="ltr">&lt;class&gt; Product2</text></g><g transform="translate(867.1847276133299 371.26153564453125) rotate(0 9 12.5)"><text x="0" y="18" font-family="Virgil, Segoe UI Emoji" font-size="20px" fill="#e67700" text-anchor="start" style="white-space: pre;" direction="ltr">...</text></g><g transform="translate(1230.7921494883299 370.65423583984375) rotate(0 9 12.5)"><text x="0" y="18" font-family="Virgil, Segoe UI Emoji" font-size="20px" fill="#e67700" text-anchor="start" style="white-space: pre;" direction="ltr">...</text></g><g stroke-linecap="round"><g transform="translate(946.3840073984861 268.12750244140625) rotate(0 -2.3644817333669153 -20.48280384130777)"><path d="M-1.61 -0.01 C-2.56 -6.62, -2.77 -33.83, -3.12 -40.96" stroke="#a61e4d" stroke-width="2.5" fill="none" stroke-dasharray="8 10"></path></g></g><g stroke-linecap="round"><g transform="translate(944.8797959727049 224.81927490234375) rotate(0 185.4313492339104 -2.154044948145753)"><path d="M-0.17 0.19 C62 -0.39, 309.59 -3.81, 371.03 -4.5" stroke="#a61e4d" stroke-width="2.5" fill="none" stroke-dasharray="8 10"></path></g></g><g stroke-linecap="round"><g transform="translate(1313.5710801523924 221.031982421875) rotate(0 4.311089638993053 25.335014619305753)"><path d="M2.46 -1.49 C3.21 6.78, 5.71 43.26, 6.16 52.16" stroke="#a61e4d" stroke-width="2.5" fill="none" stroke-dasharray="8 10"></path></g></g><g stroke-linecap="round"><g transform="translate(1135.0235948008299 222.49127197265625) rotate(0 -1.1249306183308363 -34.01209570951758)"><path d="M0.27 -1.2 C0.02 -12.25, -1.87 -56.45, -2.52 -66.82" stroke="#a61e4d" stroke-width="2.5" fill="none" stroke-dasharray="8 10"></path></g><g transform="translate(1135.0235948008299 222.49127197265625) rotate(0 -1.1249306183308363 -34.01209570951758)"><path d="M0.46 -66.34 L0.62 -57.24 L-7.17 -55.18 L-2.96 -68.54" stroke="none" stroke-width="0" fill="#a61e4d" fill-rule="evenodd"></path><path d="M-3.81 -64.42 C-2.71 -62.13, 2.81 -57.7, 2.81 -54.77 M2.92 -53.4 C1.29 -54.17, -5.79 -52.43, -10.41 -55.18 M-9.83 -53.39 C-7.72 -56.02, -1.55 -60.76, -4.57 -64.91 M-2.52 -66.82 C-2.52 -66.82, -2.52 -66.82, -2.52 -66.82" stroke="#a61e4d" stroke-width="2.5" fill="none"></path></g></g><g stroke-linecap="round"><g transform="translate(515.7677964609861 98.0146484375) rotate(0 254.27019414119422 0.10952923484146027)"><path d="M-0.14 0.95 C84.59 0.64, 424.03 -0.55, 508.68 -0.73" stroke="#a61e4d" stroke-width="2.5" fill="none" stroke-dasharray="8 10"></path></g><g transform="translate(515.7677964609861 98.0146484375) rotate(0 254.27019414119422 0.10952923484146027)"><path d="M481.88 9.27 C487.56 4.78, 497.09 5.88, 511.8 -2.57" stroke="#a61e4d" stroke-width="2.5" fill="none"></path></g><g transform="translate(515.7677964609861 98.0146484375) rotate(0 254.27019414119422 0.10952923484146027)"><path d="M481.82 -11.25 C487.68 -9.39, 497.23 -1.93, 511.8 -2.57" stroke="#a61e4d" stroke-width="2.5" fill="none"></path></g></g></svg>