<?xml version="1.0" encoding="utf-8"?>
<!-- Generator: Adobe Illustrator 24.3.0, SVG Export Plug-In . SVG Version: 6.00 Build 0)  -->
<svg version="1.1" id="Layer_1" xmlns="http://www.w3.org/2000/svg" xmlns:xlink="http://www.w3.org/1999/xlink" x="0px" y="0px"
	 viewBox="0 0 64 64" enable-background="new 0 0 64 64" xml:space="preserve">
<path fill="#8C421C" d="M56,36v-2c0-0.6-0.4-1-1-1v-6h-2v6h-9c-0.6,0-1,0.4-1,1v4h2v-3h1v3h2v-3h2v3h2v-3h2v2c0,0.6,0.4,1,1,1h7v-2
	H56z"/>
<rect x="53" y="11" fill="#8C421C" width="2" height="9"/>
<rect x="53" y="2" fill="#8C421C" width="2" height="3"/>
<rect x="23" y="7" fill="#8C421C" width="4" height="4"/>
<path fill="#AD5223" d="M22,36H4c-0.6,0-1,0.4-1,1v4v0.2V44c0,1.7,1.3,3,3,3h17V37C23,36.4,22.6,36,22,36z M7,41H5v-3h2V41z M12,41
	H9v-3h3V41z M17,41h-3v-3h3V41z M21,41h-2v-3h2V41z"/>
<polygon fill="#707070" points="39,7 42,10 39,13 46,13 46,11 46,7 "/>
<path fill="#8C421C" d="M43,38c0,5-4,9-9,9H8l2,6.9c1.2,4.2,5.1,7.1,9.5,7.1h26.7c5.4,0,9.9-4.4,9.9-9.9V38H43z"/>
<path fill="#707070" d="M48,18h-5c2.3,2.9,2.3,7.1,0,10h5C49.8,24.9,49.8,21.1,48,18z"/>
<path fill="#707070" d="M57,18h-3h-1.3c1.8,3.1,1.8,6.9,0,10H54h3C59.3,25.1,59.3,20.9,57,18z"/>
<path fill="#8C8C8C" d="M52.7,18H48c1.8,3.1,1.8,6.9,0,10h4.7C54.4,24.9,54.4,21.1,52.7,18z"/>
<polygon fill="#707070" points="55,5 54,5 46,5 46,7 46,11 54,11 55,11 "/>
<path fill="#8C421C" d="M29.6,6.1L30,5.6c0.4-0.7,0-1.6-0.8-1.6h-8.3c-0.8,0-1.3,0.9-0.8,1.6l0.4,0.6c0.4,0.6,1,0.9,1.7,0.9h5.9
	C28.6,7,29.2,6.7,29.6,6.1z"/>
<circle fill="#64B3E8" cx="20" cy="56" r="2"/>
<circle fill="#64B3E8" cx="30" cy="56" r="2"/>
<circle fill="#64B3E8" cx="40" cy="56" r="2"/>
<path fill="#94461E" d="M34,47H8l1.1,4l0,0H36c7,0,11-6,11-9h9v-3.9H43C42.9,43,38.9,47,34,47z"/>
<path fill="#A34D21" d="M6.3,45C4.5,45,3,43.7,3,42v2c0,1.7,1.5,3,3.3,3H23v-2H6.3z"/>
<path fill="#7D3B19" d="M46.1,59H19.4c-4.4,0-8.3-2.9-9.5-7.1L8.6,47H8l2,6.9c1.2,4.2,5.1,7.1,9.5,7.1h26.7c5.4,0,9.9-4.4,9.9-9.9
	v-2C56,54.6,51.6,59,46.1,59z"/>
<path fill="#8C8C8C" d="M51,53.1v-2.3c1.2-0.4,2-1.5,2-2.8c0-1.7-1.3-3-3-3s-3,1.3-3,3c0,1.3,0.8,2.4,2,2.8v2.3l-1.4-1l-1.1,1.7l3,2
	c0.2,0.1,0.4,0.2,0.6,0.2s0.4-0.1,0.6-0.2l3-2l-1.1-1.7L51,53.1z M50,47c0.6,0,1,0.4,1,1s-0.4,1-1,1s-1-0.4-1-1S49.4,47,50,47z"/>
<path fill="#7A3A18" d="M25,2L25,2c-0.6,0-1,0.4-1,1v1h2V3C26,2.4,25.6,2,25,2z"/>
<rect x="23" y="7" fill="#7A3A18" width="4" height="2"/>
<path fill="#FFECC7" d="M35,11H11c4.2,6,4.2,14,0,20h24C39.2,25,39.2,17,35,11z"/>
<path fill="#707070" d="M29,24c1-0.9,1-2.2,1-3.4l0-0.5c0-0.5-0.1-0.9-0.2-1.4l2.9-2.9l-1.4-1.4l-2.5,2.5C27.9,15.7,26.5,15,25,15
	s-2.9,0.7-3.8,1.8l-2.5-2.5l-1.4,1.4l2.9,2.9C20.1,19.1,20,19.5,20,20l0,0.5c0,1.2,0,2.5,1,3.4v0.6l-2.7,2.7l1.4,1.4l1.8-1.8
	c0.1,0.1,0.3,0.1,0.5,0.1h6c0.2,0,0.3-0.1,0.5-0.1l1.8,1.8l1.4-1.4L29,24.6V24z M24,20v2h-1v-2H24z M26,22v-2h1v2H26z"/>
<polygon fill="#8C421C" points="27,43 27,31 23,31 23,47 30,47 31,43 "/>
<rect x="45" y="7" fill="#5C5C5C" width="1" height="6"/>
</svg>
