<?xml version="1.0" encoding="iso-8859-1"?>
<!-- Generator: Adobe Illustrator 21.0.0, SVG Export Plug-In . SVG Version: 6.00 Build 0)  -->
<svg version="1.1" id="Layer_1" xmlns="http://www.w3.org/2000/svg" xmlns:xlink="http://www.w3.org/1999/xlink" x="0px" y="0px"
	 viewBox="0 0 24 24" enable-background="new 0 0 24 24" xml:space="preserve">
<linearGradient id="SVGID_1_" gradientUnits="userSpaceOnUse" x1="11.0937147" y1="11.5773926" x2="12.9062853" y2="12.4226074">
	<stop  offset="0" style="stop-color:#FFFFFF;stop-opacity:0.2"/>
	<stop  offset="1" style="stop-color:#FFFFFF;stop-opacity:0"/>
</linearGradient>
<circle fill="url(#SVGID_1_)" cx="12" cy="12" r="1"/>
<linearGradient id="SVGID_2_" gradientUnits="userSpaceOnUse" x1="11.0937147" y1="11.5773926" x2="12.9062853" y2="12.4226074">
	<stop  offset="0" style="stop-color:#FFFFFF;stop-opacity:0.2"/>
	<stop  offset="1" style="stop-color:#FFFFFF;stop-opacity:0"/>
</linearGradient>
<circle fill="url(#SVGID_2_)" cx="12" cy="12" r="1"/>
<g>
	<polygon fill="#E6E6E6" points="8.5,14.375 4.8021851,14.375 7.4169922,11.7597656 7.2392578,11.5830078 4.625,14.1976929 
		4.625,10.5 4.375,10.5 4.375,14.1976929 1.7607422,11.5830078 1.5830078,11.7597656 4.1978149,14.375 0.5,14.375 0.5,14.625 
		4.1978149,14.625 1.5830078,17.2402344 1.7607422,17.4169922 4.375,14.8023071 4.375,18.5 4.625,18.5 4.625,14.8023071 
		7.2392578,17.4169922 7.4169922,17.2402344 4.8021851,14.625 8.5,14.625 	"/>
	<polygon fill="#E6E6E6" points="23.5,14.375 19.8021851,14.375 22.4169922,11.7597656 22.2392578,11.5830078 19.625,14.1976929 
		19.625,10.5 19.375,10.5 19.375,14.1976929 16.7607422,11.5830078 16.5830078,11.7597656 19.1978149,14.375 15.5,14.375 
		15.5,14.625 19.1978149,14.625 16.5830078,17.2402344 16.7607422,17.4169922 19.375,14.8023071 19.375,18.5 19.625,18.5 
		19.625,14.8023071 22.2392578,17.4169922 22.4169922,17.2402344 19.8021851,14.625 23.5,14.625 	"/>
	<path fill="#4D4D4D" d="M18.5,8H18V7h0.5C18.7753906,7,19,6.7758789,19,6.5S18.7753906,6,18.5,6h-2.6914063l0.6386719,1.2763672
		l-0.8945313,0.4472656l-1-2c-0.0771484-0.1547852-0.0693359-0.3388672,0.0214844-0.4863281C14.6660156,5.0898438,14.8271484,5,15,5
		h3.5C19.3271484,5,20,5.6728516,20,6.5S19.3271484,8,18.5,8z"/>
	<path opacity="0.1" fill="#FFFFFF" d="M14.5742188,5.4873047C14.6660156,5.3398438,14.8271484,5.25,15,5.25h3.5
		c0.7843628,0,1.4353027,0.4821777,1.5,1.25c0.00354-0.0419312,0,0.0427856,0,0C20,5.6728516,19.3271484,5,18.5,5H15
		c-0.1728516,0-0.3339844,0.0898438-0.4257813,0.2373047c-0.0726929,0.117981-0.0926056,0.256958-0.0579987,0.3881226
		C14.5285492,5.5786133,14.5481567,5.5296631,14.5742188,5.4873047z"/>
	<path fill="#4D4D4D" d="M4.5,19C2.0185547,19,0,16.9814453,0,14.5S2.0185547,10,4.5,10S9,12.0185547,9,14.5S6.9814453,19,4.5,19z
		 M4.5,11C2.5703125,11,1,12.5703125,1,14.5S2.5703125,18,4.5,18S8,16.4296875,8,14.5S6.4296875,11,4.5,11z"/>
	<path fill="#4D4D4D" d="M19.5,19c-2.4814453,0-4.5-2.0185547-4.5-4.5s2.0185547-4.5,4.5-4.5s4.5,2.0185547,4.5,4.5
		S21.9814453,19,19.5,19z M19.5,11c-1.9296875,0-3.5,1.5703125-3.5,3.5s1.5703125,3.5,3.5,3.5s3.5-1.5703125,3.5-3.5
		S21.4296875,11,19.5,11z"/>
	<path fill="#E83628" d="M11.7675781,16.043457l-8.1435547-1.1635742L8.7392578,7h7.5693359l3.6386719,7.2763672
		l-0.8945313,0.4472656L15.9736328,8.565918L11.7675781,16.043457z M5.3759766,14.1201172l5.8564453,0.8364258L15.1455078,8
		H9.2607422L5.3759766,14.1201172z"/>
	
		<rect x="9.6841669" y="5.3297348" transform="matrix(0.9670684 -0.2545165 0.2545165 0.9670684 -2.3370457 2.937799)" fill="#E6E6E6" width="0.9998307" height="10.3405304"/>
	<path fill="#4D4D4D" d="M10.5,5h-3C7.2236328,5,7,5.2236328,7,5.5V6c0,0.1469727,0.0644531,0.2866211,0.1767578,0.3813477
		C7.2675781,6.4584961,7.3828125,6.5,7.5,6.5c0.0273438,0,0.0546875-0.0024414,0.0820313-0.0068359l3-0.5
		c0.2568359-0.0429688,0.4375-0.2749023,0.4160156-0.5341797S10.7597656,5,10.5,5z"/>
	<circle fill="#CCCCCC" cx="11.5" cy="15.5" r="1.5"/>
	<circle fill="#B3B3B3" cx="11.5" cy="15.5" r="1"/>
	<circle fill="#E83628" cx="19.5" cy="14.5" r="1"/>
	<linearGradient id="SVGID_3_" gradientUnits="userSpaceOnUse" x1="18.5937138" y1="14.0773926" x2="20.4062862" y2="14.9226074">
		<stop  offset="0" style="stop-color:#FFFFFF;stop-opacity:0.2"/>
		<stop  offset="1" style="stop-color:#FFFFFF;stop-opacity:0"/>
	</linearGradient>
	<circle fill="url(#SVGID_3_)" cx="19.5" cy="14.5" r="1"/>
	<circle fill="#E83628" cx="4.5" cy="14.5" r="1"/>
	<linearGradient id="SVGID_4_" gradientUnits="userSpaceOnUse" x1="3.5937147" y1="14.0773926" x2="5.4062853" y2="14.9226074">
		<stop  offset="0" style="stop-color:#FFFFFF;stop-opacity:0.2"/>
		<stop  offset="1" style="stop-color:#FFFFFF;stop-opacity:0"/>
	</linearGradient>
	<circle fill="url(#SVGID_4_)" cx="4.5" cy="14.5" r="1"/>
	<path opacity="0.1" fill="#FFFFFF" d="M7.4175415,5.25h3.164917c0.1674194,0,0.3172922,0.0793457,0.4144602,0.1976318
		c-0.0010376-0.0093994-0.0021677-0.0183105-0.0037546-0.02771C10.9541016,5.1777344,10.7451172,5,10.5,5h-3
		C7.2439575,5,7.032455,5.1946411,7.0028529,5.442688C7.0994716,5.3280029,7.2504883,5.25,7.4175415,5.25z"/>
	<linearGradient id="SVGID_5_" gradientUnits="userSpaceOnUse" x1="2.5702217" y1="7.990972" x2="23.0475502" y2="17.5397072">
		<stop  offset="0" style="stop-color:#FFFFFF;stop-opacity:0.2"/>
		<stop  offset="1" style="stop-color:#FFFFFF;stop-opacity:0"/>
	</linearGradient>
	<path fill="url(#SVGID_5_)" d="M19.5,10c-0.5453491,0-1.0617065,0.1121826-1.5458374,0.2906494l-1.5072632-3.0140991
		l0.0003662-0.0001831L15.8085938,6H18.5C18.7753906,6,19,6.2241211,19,6.5S18.7753906,7,18.5,7H18v1h0.5
		C19.3271484,8,20,7.3271484,20,6.5S19.3271484,5,18.5,5H15c-0.1728516,0-0.3339844,0.0898438-0.4257813,0.2373047
		c-0.0908203,0.1474609-0.0986328,0.331543-0.0214844,0.4863281L15.190918,7H9.7799072L9.5597534,6.1635742l1.0222778-0.1704102
		c0.2568359-0.0429688,0.4375-0.2749023,0.4160156-0.5341797S10.7597656,5,10.5,5h-3C7.2236328,5,7,5.2236328,7,5.5V6
		c0,0.1469727,0.0644531,0.2866211,0.1767578,0.3813477C7.2675781,6.4584961,7.3828125,6.5,7.5,6.5
		c0.0273438,0,0.0546875-0.0024414,0.0820313-0.0068359l0.9872437-0.1645508L8.7459717,7H8.7392578l-2.258728,3.4794922
		C5.880249,10.182373,5.2139282,10,4.5,10C2.0185547,10,0,12.0185547,0,14.5S2.0185547,19,4.5,19
		c2.0906372,0,3.8370972-1.4395142,4.34021-3.3748169l1.1896362,0.1699829C10.1673584,16.4813232,10.7739258,17,11.5,17
		c0.8271484,0,1.5-0.6728516,1.5-1.5c0-0.3768921-0.1444702-0.7175903-0.3747559-0.9813232l3.3483887-5.9527588l1.0827026,2.1652222
		C15.8217773,11.5343018,15,12.9204102,15,14.5c0,2.4814453,2.0185547,4.5,4.5,4.5s4.5-2.0185547,4.5-4.5S21.9814453,10,19.5,10z
		 M4.375,13.5252686c-0.1792603,0.0234985-0.3394775,0.0909424-0.4758911,0.1964722l-1.7753906-1.7756958
		c0.5961914-0.5550537,1.382019-0.9020386,2.2512817-0.9334106V13.5252686z M3.8991089,15.2782593
		C4.0355225,15.3837891,4.1957397,15.4512329,4.375,15.4747314v2.5126343
		c-0.8692627-0.0313721-1.6550903-0.3783569-2.2512817-0.9334106L3.8991089,15.2782593z M4.625,15.4747314
		c0.1792603-0.0234985,0.3394775-0.0909424,0.4758911-0.1964722l1.7753906,1.7756958
		C6.2800903,17.6090088,5.4942627,17.9559937,4.625,17.9873657V15.4747314z M7.1605835,14.375l-1.7360229-0.2479248
		c-0.0066528-0.0163574-0.0162354-0.0302124-0.0236816-0.0462036L5.930542,13.24646l1.1230469-1.12323
		c0.5552368,0.5962524,0.9023438,1.3822632,0.9337769,2.25177H7.1605835z M6.8762817,11.9460449L6.546814,12.2755737
		l0.2505493-0.3947144C6.8230591,11.9033813,6.8512573,11.9227295,6.8762817,11.9460449z M4.625,13.3378906v-2.3252563
		c0.4664917,0.0168457,0.9090576,0.1213989,1.3120117,0.3041992L4.625,13.3378906z M1.9464111,12.12323l1.7753906,1.7756958
		C3.6161499,14.0354004,3.5487671,14.1957397,3.5252686,14.375H1.0126343
		C1.0440674,13.5054932,1.3911743,12.7194824,1.9464111,12.12323z M1.0126343,14.625h2.5126343
		c0.0234985,0.1792603,0.0908813,0.3395996,0.1965332,0.4760742L1.9464111,16.87677
		C1.3911743,16.2805176,1.0440674,15.4945068,1.0126343,14.625z M7.0535889,16.87677l-1.7577515-1.7579956l2.5463867,0.3638306
		C7.6867676,16.0092773,7.4185181,16.4848633,7.0535889,16.87677z M7.3348389,11.0341187l1.7480469-2.7539673l1.5740356,5.9805298
		c-0.2023315,0.1380615-0.3637695,0.3275146-0.4786987,0.5452881l-1.1919556-0.1702271C8.9876709,14.5895996,9,14.5465088,9,14.5
		C9,13.0983276,8.3425903,11.8600464,7.3348389,11.0341187z M11.7559204,14.0258789
		c-0.0426025-0.0073853-0.0866699-0.0094604-0.1304321-0.0131836L10.0430908,8h5.102417L11.7559204,14.0258789z M22.9873657,14.375
		h-2.5126343c-0.0234985-0.1792603-0.0908813-0.3395996-0.1965332-0.4760742l1.7753906-1.7756958
		C22.6088257,12.7194824,22.9559326,13.5054932,22.9873657,14.375z M20.1008911,13.7217407
		c-0.1364136-0.1055298-0.2966309-0.1729736-0.4758911-0.1964722v-2.5126343
		c0.8692627,0.0313721,1.6550903,0.3783569,2.2512817,0.9334106L20.1008911,13.7217407z M18.8991089,15.2782593
		c0.1364136,0.1055298,0.2966309,0.1729736,0.4758911,0.1964722v2.5126343
		c-0.8692627-0.0313721-1.6550903-0.3783569-2.2512817-0.9334106L18.8991089,15.2782593z M19.625,15.4747314
		c0.1792603-0.0234985,0.3394775-0.0909424,0.4758911-0.1964722l1.7753906,1.7756958
		c-0.5961914,0.5550537-1.382019,0.9020386-2.2512817,0.9334106V15.4747314z M19.375,11.0126343v2.1193848l-0.9697876-1.9393311
		C18.7131348,11.090332,19.0360718,11.0249023,19.375,11.0126343z M18.2042236,13.0267334l-1.0805054-1.0806885
		c0.1210327-0.1126709,0.2463379-0.2207642,0.3823242-0.3156128L18.2042236,13.0267334z M16.9464111,12.12323l1.6124268,1.6126709
		l0.1162109,0.2324219c-0.0788574,0.1217041-0.1300659,0.2564697-0.1497803,0.4066772h-2.5126343
		C16.0440674,13.5054932,16.3911743,12.7194824,16.9464111,12.12323z M16.0126343,14.625h2.5126343
		c0.0234985,0.1792603,0.0908813,0.3395996,0.1965332,0.4760742L16.9464111,16.87677
		C16.3911743,16.2805176,16.0440674,15.4945068,16.0126343,14.625z M22.0535889,16.87677l-1.7753906-1.7756958
		c0.1056519-0.1364746,0.1730347-0.296814,0.1965332-0.4760742h2.5126343
		C22.9559326,15.4945068,22.6088257,16.2805176,22.0535889,16.87677z"/>
</g>
<g>
</g>
<g>
</g>
<g>
</g>
<g>
</g>
<g>
</g>
<g>
</g>
<g>
</g>
<g>
</g>
<g>
</g>
<g>
</g>
<g>
</g>
<g>
</g>
<g>
</g>
<g>
</g>
<g>
</g>
</svg>
